# xmcd CD database file
#
# Track frame offsets:
#	150
#	13423
#	28300
#	43651
#
# Disc length: 734 seconds
#
# Revision: 0
# Processed by: cddbd v1.5.1PL2 Copyright (c) Steve Scherf et al.
# Submitted via: CDex 1.50
#
DISCID=3202dc04
DTITLE=Graham Gould - Goodbye Lover, Hello Friend
DYEAR=2006
DGENRE=Country
TTITLE0=Goodbye Lover, Hello Friend
TTITLE1=There's a New Way
TTITLE2=Got To Find Me
TTITLE3=If You Gotta Go, Go Now
EXTD=YEAR: 2006
EXTT0=
EXTT1=
EXTT2=
EXTT3=
PLAYORDER=
